<svg width="94" height="20" viewBox="0 0 94 20" fill="none" xmlns="http://www.w3.org/2000/svg">
<path d="M14.2037 19.975C12.8442 19.8777 11.4964 19.4881 10.2888 18.8454C9.47856 18.413 8.12297 17.7547 7.69837 17.5872C5.94155 16.8821 4.30939 16.5822 3.3745 16.7847C3.00444 16.8665 2.51362 17.1002 2.276 17.3106C2.0267 17.5326 1.85919 17.8793 1.81245 18.2728C1.73844 18.8415 1.73844 18.8454 1.57873 18.9973L1.42291 19.1453H0.721743L0.558137 18.9934L0.394531 18.8376V18.2805C0.394531 17.6573 0.456857 17.3768 0.706162 16.886C1.11518 16.0797 2.08902 15.4953 3.29269 15.324C3.70561 15.2655 4.79242 15.3006 5.36114 15.3863C6.39731 15.546 7.64384 15.9277 8.88646 16.4653C9.26821 16.6328 10.503 17.2522 10.8147 17.4314C11.5938 17.8871 12.626 18.2611 13.6194 18.4442C14.1102 18.5376 15.3411 18.5922 15.7462 18.5415L15.9761 18.5143L15.6839 18.4403C14.9165 18.2455 13.9349 17.8287 13.1948 17.3768C11.1575 16.1342 9.65385 14.1008 9.06565 11.8025C8.89815 11.1403 8.83582 10.7352 8.78518 10.0145C8.6021 7.19039 9.57595 4.58049 11.5353 2.65228C12.9688 1.24215 14.7802 0.350105 16.7746 0.0735329C17.4563 -0.0238516 18.882 -0.0238519 19.5209 0.0696373C21.1998 0.318942 22.7423 0.977261 24.02 1.99785C25.5197 3.19373 26.6338 4.86485 27.1558 6.68789C27.9115 9.32896 27.483 12.3245 26.0495 14.4709C25.621 15.1097 25.5314 15.2305 25.1692 15.6395C24.3433 16.5744 23.2215 17.3963 22.049 17.93C21.8581 18.0157 21.562 18.1676 21.3906 18.2689C20.0701 19.0363 18.3406 19.6478 16.872 19.8621C16.0306 19.9867 14.9672 20.0335 14.2037 19.975ZM18.9716 17.2522C19.0222 17.2327 19.0184 17.2132 18.9443 17.1197C18.36 16.403 18.2042 16.2043 18.0328 15.9667C17.6744 15.4681 17.4212 15.0435 17.0668 14.3423L16.7162 13.6489L16.2838 13.4775C16.0462 13.3841 15.7579 13.2633 15.6449 13.2049C15.5359 13.1503 15.4385 13.1075 15.4307 13.1153C15.4073 13.1386 15.7345 13.9021 15.9605 14.354C16.4007 15.2344 16.9733 16.0719 17.6199 16.7886C17.8108 16.9951 17.99 17.2015 18.0211 17.2444C18.0757 17.3145 18.1146 17.3184 18.4964 17.295C18.7262 17.2833 18.9404 17.2639 18.9716 17.2522ZM15.4813 16.5159L15.2009 16.1069L15.1074 16.3601C15.0529 16.5004 15.0217 16.625 15.0334 16.6406C15.0529 16.6562 15.7151 16.9211 15.754 16.925C15.7618 16.925 15.6372 16.7419 15.4813 16.5159ZM21.1296 16.6873C21.2971 16.625 21.4413 16.5588 21.4569 16.5432C21.4724 16.5276 21.2971 16.2978 21.0751 16.029C20.8492 15.7602 20.483 15.2694 20.2571 14.9344L19.852 14.3267L19.5481 14.2995C19.3845 14.2839 19.1196 14.2488 18.9677 14.2216C18.8119 14.1943 18.6833 14.1787 18.6833 14.1865C18.6833 14.2371 19.2248 15.0357 19.517 15.4252C19.8636 15.881 20.7206 16.8081 20.7946 16.8081C20.8141 16.8081 20.966 16.7536 21.1296 16.6873ZM13.7752 15.659C13.8024 15.5733 13.931 15.2421 14.0595 14.9227L14.2933 14.3423L14.227 14.1631C14.1881 14.0657 14.0946 13.8048 14.0167 13.5866C13.9388 13.3646 13.8609 13.201 13.8453 13.2166C13.8102 13.2516 13.4596 14.1437 13.3545 14.4709C13.3077 14.6111 13.2259 14.8877 13.1753 15.0824L13.0818 15.4447L13.3739 15.659C13.5375 15.7797 13.6856 15.8615 13.6973 15.8459C13.7128 15.8304 13.7479 15.7447 13.7752 15.659ZM23.2409 15.398C23.4007 15.2577 23.6461 15.0357 23.7824 14.8955C24.0668 14.6072 24.5381 14.0385 24.5108 14.0151C24.4992 14.0034 24.3628 14.0268 24.207 14.0618C23.6772 14.1826 23.1475 14.2683 22.6566 14.315C22.3879 14.3423 22.0684 14.3735 21.9477 14.3891L21.7256 14.4124L22.0957 14.8799C22.6021 15.5148 22.8086 15.7213 22.8865 15.6784C22.9215 15.6628 23.0812 15.5343 23.2409 15.398ZM12.5053 12.5426C12.626 12.2661 12.7857 11.935 12.8598 11.8064L12.9883 11.5766L12.6182 11.2689C12.4157 11.0975 12.2443 10.965 12.2404 10.9689C12.2365 10.9767 12.1508 11.1676 12.0495 11.3935C11.8547 11.8415 11.5626 12.6868 11.4457 13.1464L11.3717 13.4386L11.5042 13.6489C11.5782 13.7658 11.695 13.9333 11.7613 14.0229L11.8859 14.1865L12.0846 13.6178C12.1936 13.3061 12.3806 12.8231 12.5053 12.5426ZM22.2476 12.9088C23.1085 12.8348 24.2187 12.5894 25.0445 12.2895C25.399 12.1609 25.473 12.0908 25.1808 12.1648C25.0874 12.1882 24.7679 12.2388 24.468 12.2778C23.7902 12.3635 21.8581 12.3751 21.2153 12.2972C19.0145 12.0207 17.1486 11.3351 15.3567 10.1353C14.2114 9.37181 13.0935 8.30058 12.2092 7.12807C11.9249 6.74632 11.3678 5.89323 11.2782 5.69067C11.251 5.63614 11.2159 5.60108 11.1925 5.61666C11.1458 5.64393 10.7757 6.42301 10.7757 6.49312C10.7757 6.66062 11.734 8.14087 12.1859 8.67454C14.3439 11.2299 17.3122 12.7452 20.5726 12.9517C21.0751 12.9828 21.5114 12.9711 22.2476 12.9088ZM10.6004 10.9962C10.6628 10.8404 10.8069 10.5054 10.9237 10.2561L11.138 9.8003L10.9432 9.55489C10.838 9.41855 10.6355 9.14588 10.4953 8.95111L10.2382 8.58884L10.207 8.93163C10.1603 9.52373 10.2265 10.3067 10.394 11.0741C10.4173 11.1832 10.4485 11.2767 10.4641 11.2767C10.4797 11.2767 10.542 11.1481 10.6004 10.9962ZM24.059 10.8637C24.5732 10.8014 25.3133 10.6612 25.734 10.5443C25.9599 10.4781 25.9872 10.4586 25.9989 10.3651C26.0106 10.2561 26.0106 10.2561 25.8431 10.2794C25.7496 10.2911 25.212 10.3106 24.6433 10.3262C23.5019 10.3534 22.7813 10.3028 21.8191 10.1236C18.7301 9.55489 15.9332 7.84482 13.9271 5.29724C13.6505 4.94276 13.2142 4.29223 12.9766 3.88322C12.7624 3.50926 12.7896 3.50147 12.3417 3.99229L12.182 4.17147L12.3534 4.51037C13.1714 6.12306 14.488 7.65005 15.9955 8.73297C17.4641 9.78861 19.1742 10.5015 20.9232 10.7858C22.0256 10.9689 22.9838 10.9923 24.059 10.8637ZM25.5899 8.84204C25.8236 8.81477 26.0222 8.78361 26.03 8.77192C26.0612 8.74076 26.0067 8.18372 25.9677 8.12139C25.9249 8.05127 25.1886 8.12529 24.3745 8.2811C23.759 8.39407 23.6149 8.42913 22.9488 8.63558C22.493 8.77582 22.5086 8.7914 23.2137 8.86151C24.0862 8.94332 24.803 8.93942 25.5899 8.84204ZM21.5465 7.55656C22.6333 7.12807 23.9304 6.81644 25.0835 6.71126C25.6444 6.65673 25.6132 6.69568 25.4418 6.30614L25.3522 6.10748L25.0094 6.08021C24.2771 6.02178 22.793 6.20486 21.7997 6.47365C21.3517 6.5944 20.5337 6.87097 20.2181 7.01121C19.5248 7.31505 19.5442 7.30336 19.5209 7.47865C19.4663 7.81755 19.4858 7.84092 19.8714 8.00064L20.222 8.14476L20.6505 7.9422C20.8842 7.83313 21.2894 7.65784 21.5465 7.55656ZM18.1419 6.53987C18.2587 4.97003 18.7184 3.32618 19.4429 1.88878C19.5442 1.68622 19.5715 1.59273 19.5442 1.56546C19.4936 1.51482 19.4819 1.52261 19.0339 2.19652C18.6795 2.72239 18.2159 3.58717 17.9705 4.18706C17.6978 4.85706 17.3862 5.90881 17.3355 6.34899C17.3161 6.53208 17.32 6.54766 17.4251 6.60998C17.4836 6.64894 17.6589 6.7619 17.8069 6.87097C17.9588 6.97615 18.0835 7.05795 18.0912 7.05016C18.099 7.04237 18.1185 6.81254 18.1419 6.53987ZM20.37 5.36736C21.4569 4.9934 22.6333 4.75968 23.8136 4.68177L24.4836 4.63503L24.2888 4.4013C24.1836 4.27275 24.0551 4.15589 24.0083 4.14421C23.6149 4.03903 22.2126 4.08188 21.3127 4.22601C20.7869 4.31171 20.1363 4.45194 20.0428 4.50258C20.0039 4.52206 19.9377 4.70904 19.8598 5.03625C19.7156 5.62835 19.7156 5.60497 19.8052 5.56992C19.8403 5.55433 20.0974 5.46085 20.37 5.36736ZM16.2098 4.75578C16.4708 3.85205 16.8408 2.96001 17.2771 2.17314C17.3628 2.01733 17.4251 1.88878 17.4173 1.88878C17.3784 1.88878 16.8759 2.57047 16.5837 3.01844C16.2799 3.4781 15.606 4.76357 15.606 4.88043C15.606 4.92718 15.9994 5.40631 16.0189 5.38294C16.0267 5.37515 16.1124 5.09468 16.2098 4.75578ZM14.6127 3.45083C14.6555 3.31449 15.0606 2.58216 15.2788 2.24716C15.4891 1.92384 15.493 1.91994 15.384 1.94332C15.2905 1.96279 14.2037 2.48867 14.0556 2.58605C14.0089 2.61332 14.0128 2.64059 14.0673 2.74966C14.2037 3.02234 14.5231 3.52484 14.5542 3.52484C14.5737 3.52484 14.5971 3.49368 14.6127 3.45083ZM20.8687 2.82367C20.9855 2.8003 21.3478 2.75745 21.6789 2.72629C22.01 2.69512 22.2866 2.66007 22.2944 2.65228C22.3411 2.60943 21.1647 2.02512 21.0868 2.05628C21.0401 2.07186 20.6077 2.86263 20.6427 2.86263C20.6505 2.86263 20.7557 2.84315 20.8687 2.82367Z" fill="#111111"/>
<path d="M33.5235 13.8586V6.10101H36.2306V7.57576H36.3114C36.4528 7.0303 36.6767 6.63131 36.9831 6.37879C37.2929 6.12626 37.6549 6 38.069 6C38.1902 6 38.3097 6.0101 38.4276 6.0303C38.5488 6.04714 38.665 6.07239 38.7761 6.10606V8.48485C38.638 8.43771 38.468 8.40236 38.266 8.37879C38.0639 8.35522 37.8905 8.34344 37.7458 8.34344C37.473 8.34344 37.2272 8.40573 37.0084 8.5303C36.7929 8.65152 36.6229 8.82323 36.4983 9.04546C36.3737 9.26431 36.3114 9.52189 36.3114 9.81818V13.8586H33.5235Z" fill="#111111"/>
<path d="M42.9629 14C42.1347 14 41.4208 13.8418 40.8215 13.5253C40.2256 13.2054 39.766 12.7475 39.4427 12.1515C39.1229 11.5522 38.9629 10.835 38.9629 10C38.9629 9.19865 39.1246 8.49832 39.4478 7.89899C39.771 7.29966 40.2272 6.83333 40.8165 6.5C41.4057 6.16667 42.101 6 42.9023 6C43.4882 6 44.0185 6.09091 44.4932 6.27273C44.968 6.45455 45.3737 6.71886 45.7104 7.06566C46.0471 7.40909 46.3064 7.8266 46.4882 8.31818C46.67 8.80977 46.7609 9.36364 46.7609 9.9798V10.6263H39.8316V9.09091H44.1953C44.1919 8.86869 44.1347 8.6734 44.0235 8.50505C43.9158 8.33333 43.7693 8.20034 43.5841 8.10606C43.4023 8.00842 43.1953 7.9596 42.9629 7.9596C42.7373 7.9596 42.5303 8.00842 42.3417 8.10606C42.1532 8.20034 42.0017 8.33165 41.8872 8.5C41.7761 8.66835 41.7171 8.86532 41.7104 9.09091V10.7475C41.7104 10.9966 41.7626 11.2189 41.867 11.4141C41.9714 11.6094 42.1212 11.7626 42.3165 11.8737C42.5118 11.9848 42.7474 12.0404 43.0235 12.0404C43.2155 12.0404 43.3905 12.0135 43.5488 11.9596C43.7104 11.9057 43.8485 11.8283 43.9629 11.7273C44.0774 11.6229 44.1616 11.4983 44.2155 11.3535H46.7609C46.6734 11.8923 46.4663 12.3603 46.1397 12.7576C45.8131 13.1515 45.3804 13.4579 44.8417 13.6768C44.3064 13.8923 43.6801 14 42.9629 14Z" fill="#111111"/>
<path d="M49.1751 13.8586L47.2357 6.10101H50.0235L50.9124 10.8283H50.973L51.9629 6.10101H54.67L55.7003 10.7879H55.7609L56.6094 6.10101H59.3973L57.4579 13.8586H54.4478L53.3569 9.69697H53.2761L52.1852 13.8586H49.1751Z" fill="#111111"/>
<path d="M63.8442 14C63.0025 14 62.282 13.8333 61.6826 13.5C61.0833 13.1633 60.6237 12.6953 60.3038 12.096C59.984 11.4933 59.8241 10.7946 59.8241 10C59.8241 9.20539 59.984 8.50842 60.3038 7.90909C60.6237 7.3064 61.0833 6.83838 61.6826 6.50505C62.282 6.16835 63.0025 6 63.8442 6C64.686 6 65.4065 6.16835 66.0059 6.50505C66.6052 6.83838 67.0648 7.3064 67.3847 7.90909C67.7045 8.50842 67.8645 9.20539 67.8645 10C67.8645 10.7946 67.7045 11.4933 67.3847 12.096C67.0648 12.6953 66.6052 13.1633 66.0059 13.5C65.4065 13.8333 64.686 14 63.8442 14ZM63.8645 11.9394C64.1001 11.9394 64.3038 11.8603 64.4756 11.702C64.6473 11.5438 64.7803 11.3182 64.8746 11.0253C64.9688 10.7323 65.016 10.3838 65.016 9.9798C65.016 9.57239 64.9688 9.22391 64.8746 8.93434C64.7803 8.64142 64.6473 8.41583 64.4756 8.25758C64.3038 8.09933 64.1001 8.0202 63.8645 8.0202C63.6153 8.0202 63.4015 8.09933 63.223 8.25758C63.0446 8.41583 62.9082 8.64142 62.8139 8.93434C62.7197 9.22391 62.6725 9.57239 62.6725 9.9798C62.6725 10.3838 62.7197 10.7323 62.8139 11.0253C62.9082 11.3182 63.0446 11.5438 63.223 11.702C63.4015 11.8603 63.6153 11.9394 63.8645 11.9394Z" fill="#111111"/>
<path d="M76.5778 6.10101L73.9718 13.8586H70.7395L68.1334 6.10101H71.0627L72.3152 11.2323H72.396L73.6485 6.10101H76.5778Z" fill="#111111"/>
<path d="M80.8518 14C80.0235 14 79.3097 13.8418 78.7104 13.5253C78.1145 13.2054 77.6549 12.7475 77.3316 12.1515C77.0118 11.5522 76.8518 10.835 76.8518 10C76.8518 9.19865 77.0134 8.49832 77.3367 7.89899C77.6599 7.29966 78.1161 6.83333 78.7054 6.5C79.2946 6.16667 79.9899 6 80.7912 6C81.3771 6 81.9074 6.09091 82.3821 6.27273C82.8569 6.45455 83.2626 6.71886 83.5993 7.06566C83.936 7.40909 84.1953 7.8266 84.3771 8.31818C84.5589 8.80977 84.6498 9.36364 84.6498 9.9798V10.6263H77.7205V9.09091H82.0842C82.0808 8.86869 82.0235 8.6734 81.9124 8.50505C81.8047 8.33333 81.6582 8.20034 81.473 8.10606C81.2912 8.00842 81.0842 7.9596 80.8518 7.9596C80.6262 7.9596 80.4192 8.00842 80.2306 8.10606C80.0421 8.20034 79.8905 8.33165 79.7761 8.5C79.665 8.66835 79.606 8.86532 79.5993 9.09091V10.7475C79.5993 10.9966 79.6515 11.2189 79.7559 11.4141C79.8602 11.6094 80.0101 11.7626 80.2054 11.8737C80.4006 11.9848 80.6363 12.0404 80.9124 12.0404C81.1044 12.0404 81.2794 12.0135 81.4377 11.9596C81.5993 11.9057 81.7374 11.8283 81.8518 11.7273C81.9663 11.6229 82.0505 11.4983 82.1044 11.3535H84.6498C84.5623 11.8923 84.3552 12.3603 84.0286 12.7576C83.702 13.1515 83.2693 13.4579 82.7306 13.6768C82.1953 13.8923 81.569 14 80.8518 14Z" fill="#111111"/>
<path d="M88.5753 9.49495V13.8586H85.7874V6.10101H88.4339V7.57576H88.5147C88.6831 7.08418 88.9794 6.69865 89.4036 6.41919C89.8312 6.13973 90.3295 6 90.8985 6C91.4474 6 91.9238 6.12626 92.3278 6.37879C92.7353 6.62795 93.0501 6.97138 93.2723 7.40909C93.4979 7.8468 93.609 8.3468 93.6056 8.90909V13.8586H90.8177V9.49495C90.8211 9.11111 90.7235 8.80977 90.5248 8.59091C90.3295 8.37205 90.0568 8.26263 89.7066 8.26263C89.4777 8.26263 89.2773 8.31313 89.1056 8.41414C88.9373 8.51179 88.8076 8.6532 88.7167 8.83838C88.6258 9.0202 88.5787 9.23906 88.5753 9.49495Z" fill="#111111"/>
</svg>
